<?xml version="1.0" encoding="utf-8"?>
<!-- Generator: Adobe Illustrator 26.0.3, SVG Export Plug-In . SVG Version: 6.00 Build 0)  -->
<svg version="1.1" id="Layer_1" xmlns="http://www.w3.org/2000/svg" xmlns:xlink="http://www.w3.org/1999/xlink" x="0px" y="0px"
	 viewBox="0 0 600 600" style="enable-background:new 0 0 600 600;" xml:space="preserve">
<style type="text/css">
	.st0{fill:#1F74BD;}
	.st1{fill:#FFFFFF;}
</style>
<rect class="st0" width="600" height="600"/>
<path class="st1" d="M240.8,279.2c-11.3-15.6-33.5-25.9-54.3-25.9c-34.3,0-66.1,21-66.1,78.8v96.8c0,6.6,5.3,11.8,11.9,11.8
	c6.6,0,11.9-5.3,11.9-11.8v-96.8c0-43.9,21.2-55.1,42.3-55.1s42.3,17.6,42.3,47.3v104.6c0,6.6,5.3,11.8,11.9,11.8h0.1h0.1
	c6.6,0,11.9-5.3,11.9-11.8V324.4c0-29.7,21.2-47.3,42.3-47.3c13.4,0,42.3,6,42.3,47.3l0.8,35.1c0,64.9,43.6,81.3,71.3,81.3
	c27.7,0,69.2-19.1,70.1-76.6v-91.9c0-15.8-23.8-15.8-23.8,0v91.9c0,43.6-32.4,52.8-46.3,52.8c-13.9,0-47.5-6.5-47.5-57.6l-0.8-33.2
	c0-49.2-30.9-74.9-66.1-74.9C274.3,251.4,252.1,263.6,240.8,279.2z"/>
<path class="st1" d="M359.4,219.7c0-23.8,17.5-49.5,47.8-49.5c30.3,0,47.7,25.7,47.7,49.5c0,17.8,23.8,17.8,23.8,0
	c0-41.6-31.4-73.3-71.5-73.3s-71.5,31.7-71.5,73.3C335.6,237.5,359.4,237.5,359.4,219.7z"/>
<path class="st1" d="M425.1,220.3c0-8.7-7-15.7-15.7-15.7c-8.7,0-15.7,7-15.7,15.7c0,8.7,7,15.7,15.7,15.7
	C418.1,236,425.1,229,425.1,220.3z"/>
</svg>
