<svg xmlns="http://www.w3.org/2000/svg" viewBox="0 0 499.66 499.66"><path d="M94.37,0H406.85A97.65,97.65,0,0,1,500,94.05V406.78c-.83,48.66-44.09,92-92.75,92.88H92.61A97.82,97.82,0,0,1,.34,406.94V92.2A97.78,97.78,0,0,1,94.37,0M248.12,111.49c-1,14.46,5.16,28,8.33,41.81-25.22,7.08-48.65,22.8-62.14,45.57-10.13,16.62-14.18,36.5-12.7,55.81.72,20.35,9.23,40.55,24.07,54.63,15.41,15.14,38.23,22.53,59.54,18.82a72.74,72.74,0,0,0,53.47-38c9.81-17.9,9.61-39.49,4.53-58.79-3.66-13.06-7.53-26.07-11.74-39,17.92,4.18,33,16,45,29.46,17.34,19.79,24.25,47.36,20.29,73.15-2.75,23.9-15.37,45.82-32.28,62.56-23.5,23-56.76,34.41-89.32,34.51-28.38.8-56.71-9-79.18-26.23a137.38,137.38,0,0,1-52.3-89.32,133.44,133.44,0,0,1,12.54-78.65,135.89,135.89,0,0,1,72.34-66.29c6.11-2.1,12-5.81,15.15-11.59,5.92-9.13,1.93-22.64-7.58-27.62-6.09-3.46-13.67-3.54-20.23-1.38a179.25,179.25,0,0,0-91.56,76.3c-18,30.11-27,65.74-24.5,100.8,2.8,50.13,28.17,98.37,67.57,129.43,29.43,23.48,66.79,37,104.5,37,40.17.36,81-12.11,112.27-37.73,27.59-22.62,47.87-54.71,54.35-89.95,4.58-27.14,2.15-55.82-9.36-81-12-27.11-33.91-49.08-59.46-63.77a115,115,0,0,0-50.2-13.63c-2.36-8.91-5.34-17.67-6.91-26.76s2.93-19.91,12.56-22.14c11-2.36,21.78,3.52,30.23,10.08,9.09,7.08,24.76,7.61,31.84-2.57,6.15-10.06,2.83-24.33-6.34-31.47-13.74-11.3-31.27-18.44-49.12-18.91C281,55.1,250.35,80.28,248.12,111.49Z" transform="translate(-0.34)" style="fill:#e01e26"/><path d="M226.37,231.18c5.44-19,23.08-31.53,41.19-37.19,5.46,17,10.81,34,15.45,51.24,1.89,9.1,1.79,19.24-3.43,27.29-8.33,14.39-30.24,19.05-42.85,7.57-13.51-12-15-32.46-10.36-48.91Z" transform="translate(-0.34)" style="fill:#e01e26"/><path d="M248.12,111.49C250.35,80.28,281,55.1,311.81,56.66c17.85.47,35.38,7.61,49.12,18.91C370.1,82.71,373.42,97,367.27,107c-7.08,10.18-22.75,9.65-31.84,2.57-8.45-6.56-19.22-12.44-30.23-10.08-9.63,2.23-14.11,13.09-12.56,22.14s4.55,17.85,6.91,26.76a115,115,0,0,1,50.2,13.63c25.55,14.69,47.42,36.66,59.46,63.77,11.51,25.18,13.94,53.86,9.36,81-6.48,35.24-26.76,67.33-54.35,89.95C333,422.4,292.12,434.87,252,434.51c-37.71,0-75.07-13.53-104.5-37-39.4-31.06-64.77-79.3-67.57-129.43-2.46-35.06,6.5-70.69,24.5-100.8A179.25,179.25,0,0,1,195.94,91c6.56-2.16,14.14-2.08,20.23,1.38,9.52,5,13.5,18.49,7.58,27.62-3.19,5.78-9,9.49-15.15,11.59a135.89,135.89,0,0,0-72.34,66.29,133.44,133.44,0,0,0-12.54,78.65A137.38,137.38,0,0,0,176,365.82c22.47,17.22,50.8,27,79.18,26.23,32.56-.1,65.82-11.49,89.32-34.51,16.91-16.74,29.53-38.66,32.28-62.56,4-25.79-2.95-53.36-20.29-73.15-12.06-13.44-27.11-25.28-45-29.46,4.21,12.89,8.08,25.9,11.74,39,5.08,19.3,5.28,40.89-4.53,58.79-10.48,20.17-30.93,34.84-53.46,38-21.32,3.71-44.14-3.68-59.55-18.82-14.84-14.08-23.35-34.28-24.07-54.63-1.48-19.31,2.57-39.19,12.7-55.81,13.49-22.77,36.92-38.49,62.14-45.57-3.17-13.83-9.33-27.35-8.33-41.81M226.37,231.18c-4.63,16.45-3.15,36.94,10.36,48.91,12.61,11.48,34.52,6.82,42.85-7.57,5.22-8,5.32-18.19,3.43-27.29C278.37,228,273,211,267.56,194c-18.11,5.66-35.75,18.18-41.19,37.19Z" transform="translate(-0.34)" style="fill:#fff"/></svg>